
<svg width="179px" height="56px" viewBox="0 0 179 56" version="1.1" xmlns="http://www.w3.org/2000/svg" xmlns:xlink="http://www.w3.org/1999/xlink">
    <g id="index" stroke="none" stroke-width="1" fill="none" fill-rule="evenodd">
        <g id="Busca2---Exportar" transform="translate(-27.000000, -16.000000)" fill-rule="nonzero">
            <g id="logoLeadEasypreto" transform="translate(27.000000, 16.000000)">
                <g id="Group" transform="translate(89.500000, 28.000000) scale(-1, 1) rotate(-180.000000) translate(-89.500000, -28.000000) ">
                    <path d="M86.3,55.6121212 C86.2,55.5151515 86.125,49.4545455 86.125,42.1333333 L86.125,28.8484848 L95.375,28.8484848 L104.625,28.8484848 L104.625,32.2424242 L104.625,35.6363636 L99.75,35.6363636 L94.875,35.6363636 L94.85,45.0424242 C94.825,50.2060606 94.8,54.6909091 94.775,55.030303 L94.75,55.6363636 L90.6,55.7090909 C88.325,55.7333333 86.4,55.6848485 86.3,55.6121212 Z" id="Path" fill="#C33538"></path>
                    <path d="M105.55,55.5878788 C105.45,55.5151515 105.375,49.4545455 105.375,42.1333333 L105.375,28.8484848 L113.925,28.8969697 L122.45,28.969697 L123.525,32.0484848 L124.575,35.1515152 L119.3,35.2 L114,35.2727273 L114,36.8484848 C114,37.7212121 114.025,38.6666667 114.075,38.9818182 L114.175,39.5151515 L120.4,39.5151515 L126.625,39.5151515 L126.625,42.4242424 L126.625,45.3333333 L120.325,45.3818182 L114,45.4545455 L114,47.3939394 L114,49.3333333 L120.7,49.4060606 L127.4,49.4545455 L127.325,52.5575758 L127.25,55.6363636 L116.475,55.7090909 C110.55,55.7333333 105.625,55.6848485 105.55,55.5878788 Z" id="Path" fill="#C33538"></path>
                    <path d="M132.75,55.4666667 C132.675,55.2969697 131.175,51.0060606 129.4,45.9393939 C126.35,37.2363636 123.875,30.2060606 123.5,29.2848485 C123.325,28.8727273 123.625,28.8484848 127.8,28.8484848 L132.275,28.8484848 L133.025,31.3454545 L133.75,33.8181818 L138.525,33.8909091 L143.3,33.9393939 L144.05,31.4666667 L144.8,28.969697 L147.2,28.8969697 L149.625,28.8242424 L149.625,34.9575758 L149.6,41.0909091 L147.025,48.3636364 L144.45,55.6363636 L138.65,55.7090909 C134.15,55.7575758 132.825,55.7090909 132.75,55.4666667 Z M139.625,45.8181818 C140.05,44.4121212 140.675,42.4242424 141,41.4060606 L141.575,39.5151515 L138.6,39.5151515 C136.55,39.5151515 135.625,39.6121212 135.625,39.7818182 C135.625,40.1212121 137.425,46.1333333 138.275,48.7272727 C138.475,49.2848485 138.7,48.7515152 139.625,45.8181818 Z" id="Shape" fill="#C33538"></path>
                    <path d="M150.375,42.3272727 L150.375,28.8484848 L157.45,28.8484848 C165.075,28.8484848 166.85,29.0181818 169.375,29.9878788 C174.575,32 177.1,35.9515152 177.125,42.1333333 C177.125,47.8787879 174.925,51.8545455 170.55,53.9393939 C167.575,55.3454545 166.15,55.5393939 157.825,55.6848485 L150.375,55.8060606 L150.375,42.3272727 Z M164.125,49.1636364 C165.6,48.8484848 167.1,47.6848485 167.725,46.4727273 C168.35,45.1393939 168.65,42.4242424 168.375,40.4848485 C168.075,38.4727273 167.45,37.1636364 166.375,36.2909091 C165.35,35.4424242 164.2,35.1272727 161.35,34.9818182 L158.95,34.8363636 L158.8,35.6606061 C158.725,36.1212121 158.65,39.3939394 158.625,42.9818182 L158.6,49.4545455 L160.725,49.4545455 C161.875,49.4545455 163.4,49.3333333 164.125,49.1636364 Z" id="Shape" fill="#C33538"></path>
                    <path d="M56.825,55.2727273 C45.1,53.4787879 37.8,41.7939394 41.725,31.0787879 C43.125,27.2484848 46.475,23.4181818 50.175,21.3333333 C51.75,20.4606061 52.075,20.169697 52,19.7575758 C50.175,12.0969697 48.55,4.46060606 48.55,3.51515152 C48.525,2.64242424 48.675,2.08484848 49,1.62424242 C49.575,0.896969697 51.25,0 52.1,0 C52.95,0 54.475,0.921212121 54.95,1.6969697 C55.3,2.23030303 57.875,13.0424242 58.8,17.6969697 L59.025,18.7878788 L60.875,18.9575758 C63.675,19.2484848 65.5,19.7575758 68.125,21.0181818 C70.1,21.9636364 70.875,22.5212121 72.775,24.3636364 C74.675,26.2060606 75.2,26.9090909 76.2,28.8484848 C77.6,31.6363636 78.1,33.3818182 78.275,36.1212121 C78.6,40.8242424 76.775,45.7454545 73.35,49.5030303 C69.6,53.6484848 62.5,56.1212121 56.825,55.2727273 Z M62.15,48.8727273 C64.525,48.3636364 66.25,47.4424242 68.15,45.6 C72.275,41.6242424 73,36.3878788 70.2,31.2242424 C68.2,27.5151515 64.075,25.2121212 59.375,25.2121212 C55.9,25.2121212 53.225,26.3030303 50.75,28.7272727 C48.275,31.1515152 47.125,33.8424242 47.125,37.2121212 C47.125,40.3878788 48.2,42.9090909 50.625,45.4060606 C53.6,48.5090909 57.775,49.769697 62.15,48.8727273 Z" id="Shape" fill="#C33538"></path>
                    <path d="M64.775,43.8545455 C63.9,43.2 63.925,42.3030303 64.875,40.4848485 C65.95,38.4484848 67.075,37.9878788 68.25,39.1515152 C69,39.8545455 69.05,40.7272727 68.375,42.1090909 C67.4,44.2181818 66.1,44.8484848 64.775,43.8545455 Z" id="Path" fill="#C33538"></path>
                    <path d="M66.475,36.969697 C65.875,36.7272727 65.6,36.3636364 65.15,35.1272727 C64.7,33.9393939 64.25,33.3090909 63.05,32.2181818 C61.825,31.0787879 61.55,30.6666667 61.55,30.0363636 C61.55,29.1878788 62.55,28.1212121 63.35,28.1212121 C63.95,28.1212121 66.375,29.8181818 67.025,30.7151515 C68.625,32.8242424 69.45,35.2969697 68.9,36.3151515 C68.5,37.0424242 67.375,37.3333333 66.475,36.969697 Z" id="Path" fill="#C33538"></path>
                    <path d="M33.125,52.7515152 C32.775,52.5575758 32.4,52.4606061 32.25,52.5333333 C32.125,52.630303 32.075,52.6060606 32.175,52.4848485 C32.275,52.3878788 32.125,52.0242424 31.875,51.6848485 C31.6,51.369697 31.375,50.7878788 31.375,50.4242424 C31.375,49.5515152 32.35,48.1939394 33.125,47.9757576 C33.475,47.8787879 35.525,47.8060606 37.675,47.7818182 C41.3,47.7575758 41.6,47.7818182 41.75,48.2181818 C41.825,48.4606061 42.3,49.0909091 42.825,49.6 C43.325,50.1090909 43.575,50.4242424 43.375,50.3272727 C43.175,50.2060606 43.5,50.6181818 44.125,51.2 C46.3,53.2606061 46.725,53.0909091 39.85,53.0909091 C35.15,53.0666667 33.6,52.9939394 33.125,52.7515152 Z" id="Path" fill="#848688"></path>
                    <path d="M1.4,43.5393939 C0.575,42.9333333 0.3,42.4969697 0.075,41.5757576 C-0.125,40.7272727 0.15,40.169697 1.2,39.2484848 C2,38.5454545 2.4,38.5212121 3.875,39.0545455 C5.125,39.5151515 5.725,40.969697 5.275,42.3515152 C5.075,42.9818182 3.55,43.9515152 2.675,44 C2.325,44 1.775,43.8060606 1.4,43.5393939 Z" id="Path" fill="#848688"></path>
                    <path d="M9.575,43.6363636 C8.575,43.0545455 7.95,42.1575758 8,41.3333333 C8.025,40.3878788 8.875,39.030303 9.425,39.030303 C9.65,39.030303 9.875,38.9090909 9.925,38.7878788 C9.975,38.6181818 10.45,38.6666667 11.275,38.9333333 C12.3,39.2484848 12.65,39.4909091 12.975,40.1454545 C13.2,40.6060606 13.375,41.1393939 13.375,41.3333333 C13.375,41.9393939 12.55,43.3939394 12.2,43.3939394 C12,43.3939394 11.925,43.5151515 12.025,43.6848485 C12.125,43.8545455 12.1,43.8787879 11.925,43.7818182 C11.75,43.6848485 11.475,43.6848485 11.325,43.7818182 C10.8,44.0969697 10.275,44.0484848 9.575,43.6363636 Z" id="Path" fill="#848688"></path>
                    <path d="M18.325,43.8060606 C18.05,43.7090909 17.7,43.7090909 17.575,43.8060606 C17.425,43.8787879 17.375,43.830303 17.475,43.6848485 C17.55,43.5393939 17.425,43.369697 17.175,43.2969697 C16.65,43.1272727 16.025,41.6 16.175,40.8484848 C16.2,40.5818182 16.6,40 17,39.5636364 L17.75,38.7878788 L27.5,38.7878788 C32.875,38.7878788 37.475,38.7878788 37.75,38.7878788 C38.275,38.7878788 38.3,38.8848485 38.4,40.4363636 C38.425,40.8 38.6,41.4060606 38.8,41.769697 C38.975,42.1333333 39.075,42.5454545 39,42.6424242 C38.925,42.7636364 38.975,42.9090909 39.1,42.9575758 C39.2,42.9818182 39.375,43.2484848 39.475,43.5151515 C39.625,44 39.5,44 29.225,44 C23.525,44 18.625,43.9272727 18.325,43.8060606 Z" id="Path" fill="#848688"></path>
                    <path d="M10.95,34.4727273 C9.9,33.9393939 9.5,33.3090909 9.5,32.2424242 C9.55,30.3757576 11.45,29.1878788 13.25,29.9151515 C13.725,30.1090909 14.125,30.4 14.125,30.5454545 C14.125,30.6909091 14.25,30.7393939 14.375,30.6666667 C14.525,30.5939394 14.65,30.6909091 14.65,30.8848485 C14.725,31.5878788 14.75,31.7090909 14.925,31.8787879 C15.025,31.9757576 15,32.3151515 14.875,32.630303 C14.75,32.9454545 14.725,33.2121212 14.825,33.2121212 C14.925,33.2121212 14.8,33.3333333 14.55,33.4787879 C14.325,33.6242424 14.175,33.8181818 14.25,33.9636364 C14.35,34.0848485 14.25,34.1818182 14.05,34.1818182 C13.85,34.1818182 13.575,34.3272727 13.425,34.4969697 C13.025,34.9575758 11.85,34.9333333 10.95,34.4727273 Z" id="Path" fill="#848688"></path>
                    <path d="M19.5,34.4 C18.525,33.6727273 18.275,33.2606061 18.25,32.3636364 C18.175,30.6424242 19.5,29.5757576 21.7,29.5757576 C23.525,29.5757576 24.725,30.0606061 25.225,31.0060606 C25.875,32.2181818 25.75,33.1636364 24.8,34.0363636 C24.05,34.7151515 23.8,34.8121212 22.1,34.8606061 C20.475,34.9333333 20.15,34.8848485 19.5,34.4 Z" id="Path" fill="#848688"></path>
                    <path d="M31,34.6181818 C30.35,34.2787879 29.525,33.4060606 29.4,32.969697 C29.2,32.169697 29.25,31.6121212 29.55,31.3212121 C29.725,31.1272727 29.825,30.9090909 29.775,30.8363636 C29.725,30.7393939 29.825,30.5212121 30.025,30.3515152 C30.225,30.1818182 30.375,30.1333333 30.375,30.230303 C30.375,30.3272727 30.5,30.2545455 30.625,30.0606061 C30.8,29.769697 31.675,29.6727273 35.225,29.6242424 C39.6,29.5515152 39.6,29.5515152 39.5,30.0606061 C39.45,30.3515152 39.275,30.7393939 39.1,30.9333333 C38.95,31.1272727 38.9,31.2727273 39,31.2727273 C39.1,31.2727273 39.075,31.4181818 38.925,31.5878788 C38.775,31.7575758 38.6,32.3151515 38.525,32.8484848 C38.25,35.030303 38.475,34.9090909 34.775,34.9090909 C32.875,34.9090909 31.3,34.7878788 31,34.6181818 Z" id="Path" fill="#848688"></path>
                    <path d="M141.725,27.6606061 C141.65,27.5878788 141.25,27.5151515 140.8,27.4666667 C139.525,27.3939394 139,27.2969697 138.875,27.1030303 C138.8,27.0060606 138.5,26.8848485 138.25,26.8363636 C137.975,26.7878788 137.5,26.6424242 137.225,26.4727273 C136.925,26.3272727 136.625,26.2787879 136.525,26.3515152 C136.45,26.4242424 136.375,26.3757576 136.375,26.230303 C136.375,26.0606061 136.3,25.9636364 136.2,25.9878788 C135.675,26.1333333 133.1,23.8787879 132.975,23.1757576 C132.95,23.030303 132.725,22.4727273 132.5,21.9636364 C131.925,20.630303 132.05,17.4060606 132.725,16.2424242 C133.7,14.5454545 135.925,12.969697 138,12.4848485 C139.525,12.1212121 142.275,11.2242424 142.325,11.0787879 C142.375,10.9818182 142.5,10.9575758 142.625,11.030303 C142.8,11.1272727 144.925,10.6181818 145.875,10.2545455 C146.075,10.1575758 146.3,10.0848485 146.375,10.0848485 C146.725,9.98787879 147.775,9.35757576 147.925,9.11515152 C148.3,8.58181818 148.125,7.27272727 147.575,6.66666667 C146.875,5.89090909 145.725,5.52727273 144.075,5.6 C141.825,5.6969697 140.5,6.32727273 139.775,7.68484848 C139.55,8.12121212 139.425,8.48484848 139.5,8.48484848 C139.575,8.48484848 139.525,8.7030303 139.375,8.96969697 C139.175,9.30909091 138.925,9.40606061 138.425,9.33333333 C138.05,9.28484848 136.875,9.16363636 135.825,9.09090909 C134,8.94545455 133.9,8.8969697 133.975,8.41212121 C134.05,8.12121212 134.1,7.85454545 134.15,7.83030303 C134.175,7.78181818 134.225,7.66060606 134.25,7.51515152 C134.275,7.39393939 134.35,7.22424242 134.375,7.15151515 C134.4,7.07878788 134.475,6.93333333 134.5,6.78787879 C134.525,6.66666667 134.6,6.4969697 134.625,6.42424242 C134.65,6.35151515 134.7,6.23030303 134.75,6.13333333 C134.775,6.01212121 134.875,5.74545455 134.975,5.52727273 C135.075,5.30909091 135.2,4.92121212 135.25,4.67878788 C135.3,4.43636364 135.35,4.21818182 135.375,4.19393939 C135.425,4.14545455 135.45,4.04848485 135.475,3.95151515 C135.5,3.83030303 135.675,3.49090909 135.85,3.2 C136.025,2.88484848 136.1,2.56969697 136.025,2.4969697 C135.95,2.42424242 136.025,2.23030303 136.2,2.08484848 C137.525,0.872727273 140.55,0.121212121 144.125,0.145454545 C147.15,0.145454545 148.225,0.290909091 150.125,0.921212121 C153.15,1.93939394 154.925,3.15151515 155.375,4.48484848 C155.525,4.94545455 155.775,5.33333333 155.9,5.33333333 C156.05,5.33333333 156.1,5.43030303 156,5.55151515 C155.925,5.67272727 155.975,5.84242424 156.1,5.93939394 C156.35,6.08484848 156.375,6.20606061 156.375,8.24242424 C156.375,9.43030303 156.25,10.8121212 156.125,11.1515152 C156.1,11.2242424 156.075,11.3454545 156.1,11.4666667 C156.1,11.5636364 156,11.6363636 155.825,11.6363636 C155.675,11.6363636 155.625,11.7090909 155.7,11.7818182 C155.8,11.8787879 155.6,12.2424242 155.275,12.630303 C154.95,13.0181818 154.625,13.4060606 154.575,13.5030303 C154.375,13.9878788 152.475,15.1030303 150.95,15.6606061 C150,16 149.075,16.3151515 148.875,16.4121212 C148.675,16.4848485 148.325,16.5818182 148.125,16.6060606 C147.8,16.6545455 146.5,16.9939394 142.45,18.0363636 C140.85,18.4727273 140.075,18.8606061 140.25,19.1757576 C140.35,19.2969697 140.3,19.3939394 140.2,19.3939394 C139.8,19.3939394 139.875,20.8 140.3,21.3090909 C140.875,21.9636364 141.6,22.1575758 143.575,22.1333333 C145.475,22.1090909 145.875,22.0363636 145.875,21.769697 C145.875,21.6484848 145.975,21.6 146.1,21.6727273 C146.425,21.8666667 147.675,20.3636364 147.525,19.9757576 C147.45,19.7818182 147.5,19.6363636 147.65,19.6363636 C147.8,19.6363636 147.825,19.5393939 147.75,19.3939394 C147.65,19.2484848 147.975,19.2 148.55,19.2727273 C149.075,19.3212121 150.5,19.4424242 151.725,19.4909091 C152.925,19.5636364 154,19.6606061 154.05,19.7333333 C154.125,19.8060606 153.95,20.169697 153.65,20.5575758 C153.35,20.969697 153.125,21.3818182 153.125,21.5272727 C153.125,21.6484848 152.95,21.8909091 152.75,22.0606061 C152.55,22.230303 152.45,22.4484848 152.525,22.569697 C152.6,22.6909091 152.525,22.7878788 152.375,22.7878788 C152.225,22.7878788 152.15,22.8848485 152.225,22.9818182 C152.3,23.1030303 152.125,23.369697 151.85,23.5878788 C151.575,23.830303 151.425,24.1212121 151.5,24.2424242 C151.575,24.3878788 151.55,24.4848485 151.425,24.4848485 C151.325,24.4848485 150.95,24.9454545 150.625,25.5272727 C150.3,26.0848485 150.025,26.569697 150,26.6181818 C149.95,26.6666667 149.625,26.7393939 149.225,26.8121212 C148.825,26.8848485 148.45,27.030303 148.375,27.1272727 C148.3,27.2242424 148.075,27.3454545 147.875,27.3454545 C147.675,27.369697 147.1,27.4424242 146.625,27.5151515 C145.25,27.7090909 141.875,27.8060606 141.725,27.6606061 Z" id="Path" fill="#848688"></path>
                    <path d="M85.975,26.4 C86.05,25.9878788 86.125,20.0242424 86.125,13.1878788 L86.125,0.727272727 L94.975,0.727272727 C103.65,0.727272727 103.825,0.727272727 103.95,1.21212121 C104.025,1.47878788 104.075,1.74545455 104.05,1.79393939 C104.025,1.81818182 104.15,2.03636364 104.35,2.25454545 C104.525,2.4969697 104.6,2.66666667 104.525,2.66666667 C104.425,2.66666667 104.475,2.88484848 104.625,3.17575758 C104.8,3.44242424 104.975,3.95151515 105.025,4.29090909 C105.1,4.63030303 105.35,5.30909091 105.575,5.79393939 L106.025,6.66666667 L100.075,6.59393939 L94.1,6.52121212 L94.175,8.8969697 L94.25,11.2727273 L100.5,11.3454545 L106.75,11.3939394 L106.7,14.1333333 L106.625,16.8484848 L100.45,16.969697 L94.25,17.0909091 L94.25,19.1515152 L94.25,21.2121212 L100.85,21.3333333 L107.45,21.4545455 L107.425,24.2424242 L107.425,27.030303 L96.625,27.1030303 L85.8,27.1515152 L85.975,26.4 Z" id="Path" fill="#848688"></path>
                    <path d="M114.25,26.3757576 C114.15,25.9393939 114.05,25.5030303 114.025,25.4060606 C114,25.3333333 113.925,25.1636364 113.825,25.0666667 C113.7,24.969697 113.625,24.6545455 113.625,24.3636364 C113.625,24.0727273 113.55,23.7575758 113.45,23.6606061 C113.35,23.5878788 113.25,23.369697 113.225,23.2 C113.15,22.6666667 111.8,18.8121212 111.525,18.3030303 C111.4,18.0363636 111.25,17.7454545 111.225,17.6484848 C111.2,17.5272727 111.175,17.430303 111.15,17.4060606 C111.1,17.3575758 111.05,17.0666667 110.975,16.7515152 C110.925,16.4121212 110.75,16.0242424 110.6,15.830303 C110.45,15.6606061 110.4,15.5151515 110.5,15.5151515 C110.6,15.5151515 110.55,15.3454545 110.375,15.1515152 C110.2,14.9575758 110.125,14.7878788 110.225,14.7878788 C110.325,14.7878788 110.225,14.4727273 110,14.0606061 C109.775,13.6727273 109.675,13.3333333 109.775,13.3333333 C109.875,13.3333333 109.825,13.1878788 109.675,13.0424242 C109.525,12.8727273 109.4,12.6545455 109.4,12.5575758 C109.375,12.4363636 109.375,12.3393939 109.35,12.3151515 C109.35,12.2666667 109.3,12.0727273 109.25,11.8787879 C109.175,11.4909091 107.475,6.66666667 107.2,6.06060606 C107.125,5.86666667 107.025,5.64848485 107,5.57575758 C106.6,4.0969697 106.025,2.4969697 105.875,2.3030303 C105.75,2.15757576 105.6,1.74545455 105.525,1.38181818 L105.4,0.727272727 L109.625,0.727272727 L113.825,0.727272727 L114.1,1.74545455 C114.7,4.21818182 114.9,4.94545455 115.125,5.35757576 C115.35,5.74545455 115.8,5.79393939 120.1,5.79393939 C125.05,5.79393939 125.25,5.74545455 125.45,4.7030303 C125.5,4.46060606 125.625,4.07272727 125.7,3.87878788 C125.8,3.68484848 126.075,2.86060606 126.325,2.06060606 C126.575,1.26060606 126.85,0.63030303 126.95,0.678787879 C127.05,0.703030303 128.925,0.727272727 131.15,0.727272727 C135.125,0.727272727 135.15,0.727272727 135,1.23636364 C134.9,1.52727273 134.8,1.89090909 134.75,2.03636364 C134.7,2.32727273 134.6,2.61818182 133.7,4.92121212 C133.375,5.81818182 133.05,6.73939394 133,6.98181818 C132.95,7.2 132.9,7.41818182 132.875,7.46666667 C132.825,7.49090909 132.8,7.58787879 132.775,7.70909091 C132.75,7.80606061 132.475,8.50909091 132.175,9.26060606 C131.875,10.0363636 131.575,10.9090909 131.525,11.2 C131.45,11.5151515 130.95,12.9454545 130.375,14.4 C129.825,15.8545455 129.325,17.2121212 129.275,17.430303 C129.225,17.6484848 129.125,18.0363636 129.025,18.3030303 C128.325,20.1212121 128.125,20.630303 128.1,20.8 C128.05,21.0424242 127.975,21.2121212 127.25,23.1272727 C126.925,24.0242424 126.7,24.8727273 126.775,24.9939394 C126.85,25.1151515 126.775,25.2121212 126.625,25.2121212 C126.475,25.2121212 126.4,25.3090909 126.5,25.430303 C126.575,25.5515152 126.525,25.7212121 126.375,25.8181818 C126.225,25.9151515 126.175,26.0606061 126.25,26.1818182 C126.325,26.3030303 126.275,26.4484848 126.125,26.5454545 C125.975,26.6424242 125.925,26.8121212 126,26.9333333 C126.1,27.0545455 123.85,27.1515152 120.3,27.1515152 L114.45,27.1515152 L114.25,26.3757576 Z M120.575,19.830303 C120.725,19.3939394 121.325,17.3090909 121.975,15.2242424 C122.6,13.1393939 123.125,11.369697 123.125,11.2969697 C123.125,11.2242424 121.775,11.1515152 120.125,11.1515152 C118.475,11.1515152 117.125,11.2242424 117.125,11.2969697 C117.125,11.4424242 117.65,13.1393939 119.325,18.4969697 C119.675,19.6606061 120.075,20.6060606 120.175,20.6060606 C120.275,20.6060606 120.45,20.2424242 120.575,19.830303 Z" id="Shape" fill="#848688"></path>
                    <path d="M151.125,27.0545455 C151.125,26.9818182 151.275,26.7878788 151.475,26.6181818 C151.775,26.3030303 153.2,23.8545455 153.25,23.5151515 C153.3,23.2484848 153.975,22.1818182 154.175,22.0363636 C154.3,21.9636364 154.425,21.7212121 154.475,21.5030303 C154.5,21.2848485 154.725,20.8969697 154.975,20.630303 C155.225,20.3878788 155.425,20.0242424 155.475,19.830303 C155.5,19.6606061 155.75,19.1757576 156.025,18.7878788 C156.525,18.0848485 157.45,16.5090909 157.5,16.2424242 C157.525,16.0727273 158.525,14.3515152 159.25,13.2121212 C160.925,10.5939394 160.875,10.8606061 160.875,5.52727273 L160.875,0.606060606 L164.875,0.678787879 L168.875,0.751515152 L168.875,5.5030303 C168.875,10.2060606 168.875,10.2787879 169.55,11.369697 C169.9,11.9757576 170.4,12.7515152 170.65,13.0666667 C170.925,13.3818182 171.05,13.7212121 170.975,13.8424242 C170.9,13.9636364 170.975,14.0606061 171.1,14.0606061 C171.25,14.0606061 171.375,14.1818182 171.375,14.3272727 C171.375,14.4727273 171.6,14.9090909 171.9,15.2969697 C172.175,15.6848485 172.325,16 172.225,16 C172.125,16 172.225,16.1939394 172.425,16.4363636 C172.65,16.6545455 172.9,17.0909091 172.975,17.4060606 C173.075,17.6969697 173.25,17.9393939 173.375,17.9393939 C173.475,17.9393939 173.65,18.2060606 173.725,18.5212121 C173.8,18.8606061 174.025,19.2727273 174.2,19.4424242 C174.375,19.6121212 174.8,20.3151515 175.15,20.969697 C175.475,21.6484848 175.9,22.3272727 176.075,22.4969697 C176.225,22.6666667 176.375,22.9818182 176.375,23.1757576 C176.375,23.369697 176.5,23.5151515 176.65,23.5151515 C176.775,23.5151515 176.85,23.6121212 176.775,23.7333333 C176.7,23.8545455 176.85,24.2181818 177.125,24.5575758 C177.4,24.8969697 177.625,25.2606061 177.625,25.3575758 C177.625,25.4545455 177.9,25.8909091 178.275,26.3515152 L178.9,27.1515152 L174.4,27.1515152 C171.55,27.1515152 169.875,27.0545455 169.875,26.9090909 C169.875,26.4 169.825,26.3030303 169.45,25.8909091 C169.225,25.6484848 169.125,25.4545455 169.2,25.4545455 C169.3,25.4545455 168.65,24.0969697 167.775,22.4242424 C166.9,20.7757576 166.25,19.3454545 166.325,19.2727273 C166.4,19.2 166.325,19.1515152 166.175,19.1515152 C166,19.1515152 165.875,18.9575758 165.875,18.7393939 C165.875,18.4969697 165.7,18.0848485 165.5,17.8424242 C165.2,17.4545455 165.075,17.430303 164.75,17.6969697 C164.55,17.8666667 164.425,18.0848485 164.5,18.1818182 C164.575,18.3030303 164.5,18.5454545 164.325,18.7151515 C163.85,19.2242424 162.575,21.5757576 162.775,21.5757576 C162.875,21.5757576 162.775,21.769697 162.55,22.0121212 C162.3,22.2545455 162.2,22.5454545 162.3,22.6181818 C162.375,22.7151515 162.325,22.7878788 162.175,22.7878788 C162,22.7878788 161.875,22.9818182 161.85,23.2242424 C161.85,23.4424242 161.425,24.4121212 160.9,25.3333333 L159.975,27.030303 L155.55,27.1030303 C153.125,27.1272727 151.125,27.1030303 151.125,27.0545455 Z" id="Path" fill="#848688"></path>
                    <path d="M22.975,25.6969697 C21.325,25.0424242 20.875,22.8606061 22.1,21.5272727 L22.825,20.7272727 L34.775,20.6545455 L46.725,20.5818182 L45.225,22.1090909 C44.425,22.9575758 43.65,23.7090909 43.5,23.8060606 C43.375,23.9030303 43.325,24 43.45,24 C43.6,24 43.375,24.2909091 42.2,25.5272727 C41.825,25.9151515 41.05,25.9393939 32.65,25.9151515 C27.625,25.9151515 23.25,25.8181818 22.975,25.6969697 Z" id="Path" fill="#848688"></path>
                    <path d="M30.2,17.2848485 C29.875,17.2363636 29.625,17.0909091 29.625,16.969697 C29.625,16.8727273 29.4,16.7272727 29.15,16.6545455 C28.575,16.5090909 28,14.7878788 28.275,13.9878788 C28.5,13.2606061 29.85,12.1212121 30.475,12.0969697 C32.275,12.0484848 36.45,12.169697 36.7,12.2666667 C37.3,12.5333333 38.175,13.8666667 38.175,14.4969697 C38.125,15.8545455 38.025,16.0727273 37.075,16.7272727 C36.175,17.3575758 35.975,17.4060606 33.45,17.4060606 C31.95,17.4060606 30.5,17.3575758 30.2,17.2848485 Z" id="Path" fill="#848688"></path>
                    <path d="M42.825,17.2848485 C42.425,17.2121212 41.875,16.8242424 41.475,16.3151515 C40.6,15.2 40.575,14.1575758 41.45,13.2363636 C41.675,12.969697 41.875,12.6545455 41.875,12.5575758 C41.875,12.4363636 42,12.4121212 42.125,12.4848485 C42.275,12.5575758 42.375,12.5333333 42.375,12.4121212 C42.375,12.2909091 43.475,12.169697 44.8,12.1454545 C46.125,12.1212121 47.3,12.0484848 47.4,11.9757576 C47.625,11.8545455 48.375,12.5333333 48.4,12.9212121 C48.425,13.5515152 48.6,14.4969697 48.95,15.9515152 L49.325,17.4545455 L46.425,17.430303 C44.8,17.4060606 43.2,17.3333333 42.825,17.2848485 Z" id="Path" fill="#848688"></path>
                    <path d="M44.575,7.83030303 C42.45,6.54545455 43.325,3.39393939 45.925,3.05454545 C46.175,3.00606061 46.325,3.03030303 46.275,3.07878788 C46.225,3.15151515 46.275,3.53939394 46.425,3.95151515 C46.55,4.38787879 46.7,4.99393939 46.75,5.33333333 C46.85,6.01212121 47.025,6.88484848 47.225,7.70909091 C47.325,8.19393939 47.25,8.24242424 46.3,8.24242424 C45.725,8.24242424 44.95,8.04848485 44.575,7.83030303 Z" id="Path" fill="#848688"></path>
                </g>
            </g>
        </g>
    </g>
</svg>